#!OML:ASF I:\Actors\actors\Patient Classification 2\Patient 1\Session 1\actor1.ASF
:FULLY-SPECIFIED
:DEGREES
161
root -0.751712 18.7974 5.15936 5.96562 -1.71465 -2.08718
lowerback 11.3767 1.68346 -1.95429
upperback 3.3621 2.02764 0.683146
thorax -2.95492 1.00704 1.53154
lowerneck -14.7426 -2.94136 -3.41197
upperneck 32.4353 -4.21416 2.76241
head 13.5439 -1.87824 1.02324
rclavicle -1.60519e-014 9.54166e-015
rhumerus -12.9527 39.8169 -69.4269
rradius 82.8186
rwrist -8.03113
rhand -20.0545 -30.0612
rfingers 7.12502
rthumb 6.28718 -59.9479
lclavicle -1.60519e-014 9.54166e-015
lhumerus -5.25411 -42.0492 68.0389
lradius 82.3439
lwrist 12.17
lhand -15.037 -48.1986
lfingers 7.12502
lthumb 11.1291 -18.5137
rfemur 0 0 0
rtibia 0
rfoot 0 0
rtoes 0
lfemur -10.6707 -7.71601 -11.2197
ltibia 21.6709
lfoot -23.1647 17.2498
ltoes -53.795
162
root -0.744298 18.7995 5.15247 6.17447 -1.79145 -2.05305
lowerback 11.7895 1.85055 -1.77285
upperback 3.22381 2.25633 0.57902
thorax -3.32374 1.1233 1.27457
lowerneck -14.7695 -3.04866 -3.40524
upperneck 32.2943 -4.39502 2.8535
head 13.4988 -1.94267 1.02836
rclavicle -2.55438e-014 -5.1684e-015
rhumerus -14.0614 38.7744 -71.7705
rradius 82.6022
rwrist -10.3323
rhand -20.0919 -30.1135
rfingers 7.12502
rthumb 6.25105 -60.0012
lclavicle -2.55438e-014 -5.1684e-015
lhumerus -6.29944 -41.3283 70.9029
lradius 81.9231
lwrist 12.5159
lhand -16.0173 -49.1035
lfingers 7.12502
lthumb 10.1834 -19.37
rfemur 0 0 0
rtibia 0
rfoot 0 0
rtoes 0
lfemur -10.9221 -7.59763 -11.2547
ltibia 21.696
lfoot -23.124 17.2134
ltoes -53.7376
163
root -0.737921 18.8027 5.14711 6.37718 -1.81454 -1.99041
lowerback 11.8812 1.90815 -1.86937
upperback 3.21978 2.31959 0.593935
thorax -3.38476 1.15537 1.33219
lowerneck -14.7281 -3.03956 -3.43466
upperneck 32.0095 -4.39268 2.94143
head 13.3704 -1.93506 1.06762
rclavicle -1.12313e-014 -1.44119e-014
rhumerus -14.5603 38.2744 -73.6023
rradius 82.4628
rwrist -12.9424
rhand -20.2089 -29.7872
rfingers 7.12502
rthumb 6.13812 -59.6782
lclavicle -1.12313e-014 -1.44119e-014
lhumerus -7.29169 -40.1062 73.8494
lradius 81.5023
lwrist 12.9006
lhand -16.5584 -49.7193
lfingers 7.12502
lthumb 9.66144 -19.9609
rfemur 0 0 0
rtibia 0
rfoot 0 0
rtoes 0
lfemur -11.1781 -7.49992 -11.3095
ltibia 21.7141
lfoot -23.0528 17.1302
ltoes -53.5992
164
root -0.729332 18.8073 5.14433 6.58083 -1.74913 -1.90052
lowerback 11.7017 1.91756 -2.11105
upperback 3.38175 2.31253 0.708605
thorax -3.13114 1.14947 1.59687
lowerneck -14.988 -3.05844 -3.60717
upperneck 31.7858 -4.39955 3.07972
head 13.3403 -1.93811 1.1461
rclavicle 8.32411e-015 2.83268e-015
rhumerus -14.602 37.7868 -74.9794
rradius 82.3904
rwrist -14.9702
rhand -19.7964 -29.1011
rfingers 7.12502
rthumb 6.53636 -58.9802
lclavicle 8.32411e-015 2.83268e-015
lhumerus -7.84211 -38.7256 76.6068
lradius 80.993
lwrist 13.0581
lhand -16.8647 -50.1435
lfingers 7.12502
lthumb 9.36589 -20.3716
rfemur 0 0 0
rtibia 0
rfoot 0 0
rtoes 0
lfemur -11.46 -7.41787 -11.3971
ltibia 21.7292
lfoot -22.9081 17.0768
ltoes -53.6465
165
root -0.717459 18.8108 5.14575 6.73874 -1.61376 -1.83554
lowerback 11.6364 1.86978 -2.08578
upperback 3.35527 2.25099 0.633973
thorax -3.11634 1.11917 1.51538
lowerneck -14.923 -3.05883 -3.42297
upperneck 31.7142 -4.47408 3.13682
head 13.2951 -1.94225 1.12509
rclavicle 1.71452e-015 -2.5842e-015
rhumerus -15.1133 37.1441 -76.9199
rradius 82.494
rwrist -17.1533
rhand -19.5492 -28.6517
rfingers 7.12502
rthumb 6.775 -58.5233
lclavicle 1.71452e-015 -2.5842e-015
lhumerus -8.57434 -37.7435 79.0804
lradius 80.4848
lwrist 13.1376
lhand -17.3114 -50.5943
lfingers 7.12502
lthumb 8.93489 -20.8035
rfemur 0 0 0
rtibia 0
rfoot 0 0
rtoes 0
lfemur -11.6871 -7.3662 -11.4705
ltibia 21.7427
lfoot -22.758 17.0148
ltoes -53.7814
166
root -0.705572 18.813 5.15091 6.82361 -1.4025 -1.80083
lowerback 11.629 1.82027 -1.9318
upperback 3.33848 2.20031 0.546338
thorax -3.11869 1.09393 1.34489
lowerneck -14.9917 -3.07854 -3.23573
upperneck 31.7335 -4.56131 3.14891
head 13.3169 -1.95501 1.08274
rclavicle 3.90115e-015 -2.48481e-015
rhumerus -15.3845 36.3937 -78.6027
rradius 82.7269
rwrist -20.2646
rhand -19.9487 -28.6322
rfingers 7.12502
rthumb 6.38931 -58.5159
lclavicle 3.90115e-015 -2.48481e-015
lhumerus -9.105 -36.971 81.4234
lradius 79.9558
lwrist 13.4749
lhand -17.9311 -51.2519
lfingers 7.12502
lthumb 8.33679 -21.4364
rfemur 0 0 0
rtibia 0
rfoot 0 0
rtoes 0
lfemur -11.8293 -7.3299 -11.5121
ltibia 21.7543
lfoot -22.6353 16.8456
ltoes -53.7209
167
root -0.696675 18.8152 5.15852 6.88576 -1.16162 -1.7721
lowerback 11.6391 1.77351 -1.77982
upperback 3.29955 2.15333 0.476446
thorax -3.1549 1.07091 1.19256
lowerneck -15.0808 -3.11795 -3.2415
upperneck 31.7832 -4.67122 3.31206
head 13.3676 -1.98005 1.12946
rclavicle -2.08227e-014 4.67144e-015
rhumerus -15.3481 35.6124 -80.0045
rradius 82.8922
rwrist -23.4512
rhand -20.2737 -28.5454
rfingers 7.12502
rthumb 6.07555 -58.4383
lclavicle -2.08227e-014 4.67144e-015
lhumerus -9.69295 -36.1936 83.7896
lradius 79.53
lwrist 13.9373
lhand -18.615 -51.9093
lfingers 7.12502
lthumb 7.67677 -22.0687
rfemur 0 0 0
rtibia 0
rfoot 0 0
rtoes 0
lfemur -11.9595 -7.24287 -11.5428
ltibia 21.7807
lfoot -22.4734 16.6017
ltoes -53.6626
168
root -0.688914 18.8161 5.1678 6.92704 -0.943859 -1.72698
lowerback 11.6214 1.7275 -1.69753
upperback 3.24823 2.10071 0.429842
thorax -3.19229 1.04535 1.10501
lowerneck -15.1515 -3.14864 -3.25926
upperneck 31.8255 -4.73592 3.38826
head 13.4069 -1.99868 1.15153
rclavicle -2.127e-014 1.98785e-015
rhumerus -15.3295 34.7726 -81.3738
rradius 83.1241
rwrist -26.1623
rhand -19.8622 -28.2929
rfingers 7.12502
rthumb 6.47288 -58.174
lclavicle -2.127e-014 1.98785e-015
lhumerus -10.3162 -35.2972 86.0888
lradius 79.2171
lwrist 14.2728
lhand -19.2595 -52.5495
lfingers 7.12502
lthumb 7.05466 -22.6871
rfemur 0 0 0
rtibia 0
rfoot 0 0
rtoes 0
lfemur -12.0683 -7.25325 -11.5984
ltibia 21.8292
lfoot -22.3675 16.4541
ltoes -53.654
169
root -0.679298 18.816 5.17933 6.91369 -0.719231 -1.7062
lowerback 11.5914 1.67079 -1.62681
upperback 3.21544 2.03476 0.430285
thorax -3.2055 1.01291 1.07544
lowerneck -15.2738 -3.17688 -3.26271
upperneck 31.881 -4.76658 3.36272
head 13.4581 -2.01351 1.13585
rclavicle 1.09332e-014 4.07509e-015
rhumerus -15.4241 33.8448 -82.6269
rradius 83.6571
rwrist -29.3111
rhand -18.1242 -27.8703
rfingers 7.12502
rthumb 8.15047 -57.6931
lclavicle 1.09332e-014 4.07509e-015
lhumerus -10.8248 -34.3826 88.1814
lradius 78.9972
lwrist 14.6494
lhand -19.7194 -53.0797
lfingers 7.12502
lthumb 6.61072 -23.2029
rfemur 0 0 0
rtibia 0
rfoot 0 0
rtoes 0
lfemur -12.1111 -7.26717 -11.6387
ltibia 21.8883
lfoot -22.2817 16.3179
ltoes -53.7509
